# xmcd
#
# Track frame offsets: 
#        150
#        14726
#        22700
#        39560
#        51571
#        61975
#        77829
#        89935
#        101507
#        111978
#        126242
#        134280
#        148348
#        163100
#        174753
#        186018
#        198324
#        208834
#        220746
#
# Disc length: 3164 seconds
#
# Revision: 0
# Processed by: cddbd v1.5.2PL0 Copyright (c) Steve Scherf et al.
# Submitted via: ExactAudioCopy v0.90b4
#
DISCID=1d0c5a13
DTITLE=Shenk, Stu and Brien Fain - A Taste Of Old Time
DYEAR=2007
DGENRE=Old-Time
TTITLE0=Angelina Baker
TTITLE1=Shootin' Creek
TTITLE2=Faded Love
TTITLE3=Hang Jeff Davis From A Sour Apple Tree
TTITLE4=Sweet Sunny South
TTITLE5=Sugar Hill
TTITLE6=Yellow Rose Of Texas
TTITLE7=Chicken Reel
TTITLE8=Cumberland Gap
TTITLE9=Bonaparte Crossing The Rhine
TTITLE10=Darlin' Nellie Gray
TTITLE11=Liberty
TTITLE12=Wreck Of Old 97
TTITLE13=Saro
TTITLE14=Kay's Waltz
TTITLE15=Western Country
TTITLE16=Cold Frosty Morn
TTITLE17=Mississippi Sawyer
TTITLE18=Wednesday Night Waltz
EXTD=
EXTT0=
EXTT1=
EXTT2=
EXTT3=
EXTT4=
EXTT5=
EXTT6=
EXTT7=
EXTT8=
EXTT9=
EXTT10=
EXTT11=
EXTT12=
EXTT13=
EXTT14=
EXTT15=
EXTT16=
EXTT17=
EXTT18=
PLAYORDER=
